<svg width="13" height="17" viewBox="0 0 13 17" fill="none" xmlns="http://www.w3.org/2000/svg">
<path d="M11.375 5.66667H10.5625V4.04762C10.5625 1.81333 8.7425 0 6.5 0C4.2575 0 2.4375 1.81333 2.4375 4.04762V5.66667H1.625C0.73125 5.66667 0 6.39524 0 7.28571V15.381C0 16.2714 0.73125 17 1.625 17H11.375C12.2688 17 13 16.2714 13 15.381V7.28571C13 6.39524 12.2688 5.66667 11.375 5.66667ZM6.5 12.9524C5.60625 12.9524 4.875 12.2238 4.875 11.3333C4.875 10.4429 5.60625 9.71429 6.5 9.71429C7.39375 9.71429 8.125 10.4429 8.125 11.3333C8.125 12.2238 7.39375 12.9524 6.5 12.9524ZM9.01875 5.66667H3.98125V4.04762C3.98125 2.66333 5.11062 1.5381 6.5 1.5381C7.88938 1.5381 9.01875 2.66333 9.01875 4.04762V5.66667Z" fill="#A8A9AD"/>
</svg>
