<svg id="Camada_1" data-name="Camada 1" xmlns="http://www.w3.org/2000/svg" viewBox="0 0 103.07 20.65"><defs><style>.cls-1{fill:#ed6f26;}</style></defs><path class="cls-1" d="M250.52,487.33v6.88h-4.06V474.14h6.68a6.66,6.66,0,0,1,4.94,1.82,7.16,7.16,0,0,1,0,9.56,6.69,6.69,0,0,1-4.94,1.81Zm0-3.58h2.62a2.47,2.47,0,0,0,2-.84,3.19,3.19,0,0,0,.7-2.14,3.38,3.38,0,0,0-.69-2.19,2.46,2.46,0,0,0-2-.86h-2.62Z" transform="translate(-246.46 -473.85)"/><path class="cls-1" d="M276.74,494.21h-4.05v-8.08h-6.47v8.08h-4.07V474.14h4.07v8.41h6.47v-8.41h4.05Z" transform="translate(-246.46 -473.85)"/><path class="cls-1" d="M294.07,486a9.12,9.12,0,0,1-2.05,6.11,6.69,6.69,0,0,1-5.36,2.41,6.76,6.76,0,0,1-5.39-2.41A9,9,0,0,1,279.2,486v-3.61a9.11,9.11,0,0,1,2.06-6.11,7.19,7.19,0,0,1,10.74,0,9.06,9.06,0,0,1,2.07,6.11ZM290,482.34a6.44,6.44,0,0,0-.89-3.53,3,3,0,0,0-5,0,6.54,6.54,0,0,0-.87,3.54V486a6.5,6.5,0,0,0,.89,3.56,2.81,2.81,0,0,0,2.52,1.38,2.78,2.78,0,0,0,2.48-1.38A6.59,6.59,0,0,0,290,486Z" transform="translate(-246.46 -473.85)"/><path class="cls-1" d="M306.76,485.62H300.6v5H308v3.58H296.54V474.14H308v3.58h-7.4V482h6.16Z" transform="translate(-246.46 -473.85)"/><path class="cls-1" d="M324.86,494.21h-4.05l-6.4-12.63-.08,0v12.6h-4.06V474.14h4.06l6.41,12.61.07,0V474.14h4.05Z" transform="translate(-246.46 -473.85)"/><path class="cls-1" d="M332,494.21H327.9V474.14H332Z" transform="translate(-246.46 -473.85)"/><path class="cls-1" d="M341.58,480.91l2.89-6.77h4.68l-5,9.95,5.4,10.12h-4.93l-3-6.91-3,6.91H334l5.14-10.12-5-9.95h4.65Z" transform="translate(-246.46 -473.85)"/></svg>